<?xml version="1.0" encoding="UTF-8" standalone="no"?>
<!-- Creator: CorelDRAW X8 -->

<svg
   xmlns:dc="http://purl.org/dc/elements/1.1/"
   xmlns:cc="http://creativecommons.org/ns#"
   xmlns:rdf="http://www.w3.org/1999/02/22-rdf-syntax-ns#"
   xmlns:svg="http://www.w3.org/2000/svg"
   xmlns="http://www.w3.org/2000/svg"
   xmlns:sodipodi="http://sodipodi.sourceforge.net/DTD/sodipodi-0.dtd"
   xmlns:inkscape="http://www.inkscape.org/namespaces/inkscape"
   xml:space="preserve"
   width="210mm"
   height="297mm"
   version="1.1"
   style="shape-rendering:geometricPrecision; text-rendering:geometricPrecision; image-rendering:optimizeQuality; fill-rule:evenodd; clip-rule:evenodd"
   viewBox="0 0 21000 29700"
   id="svg119"
   sodipodi:docname="ASB-logo.svg"
   inkscape:version="0.92.2 (5c3e80d, 2017-08-06)"><metadata
     id="metadata123"><rdf:RDF><cc:Work
         rdf:about=""><dc:format>image/svg+xml</dc:format><dc:type
           rdf:resource="http://purl.org/dc/dcmitype/StillImage" /></cc:Work></rdf:RDF></metadata><sodipodi:namedview
     pagecolor="#ffffff"
     bordercolor="#666666"
     borderopacity="1"
     objecttolerance="10"
     gridtolerance="10"
     guidetolerance="10"
     inkscape:pageopacity="0"
     inkscape:pageshadow="2"
     inkscape:window-width="1920"
     inkscape:window-height="1017"
     id="namedview121"
     showgrid="false"
     inkscape:zoom="0.2102413"
     inkscape:cx="-527.9113"
     inkscape:cy="98.418822"
     inkscape:window-x="-8"
     inkscape:window-y="-8"
     inkscape:window-maximized="1"
     inkscape:current-layer="svg119" /><defs
     id="defs4"><style
       type="text/css"
       id="style2"><![CDATA[
    .fil2 {fill:black}
    .fil0 {fill:#A9CBFE}
    .fil1 {fill:#F8F8F8}
    .fil3 {fill:#FEA9A9}
   ]]></style></defs><g
     id="Layer_x0020_1"
     inkscape:export-xdpi="96"
     inkscape:export-ydpi="96"
     transform="matrix(6.3524813,0,0,6.4999091,-62908.889,-40762.88)"><metadata
       id="CorelCorpID_0Corel-Layer" /><g
       id="_2219498993536"><path
         class="fil0"
         d="m 14242,9560 c 221,-12 521,12 742,31 1475,132 1607,1443 591,1937 -177,86 -393,131 -616,156 -114,12 -624,56 -714,30 z m 15,-619 c -32,-276 -15,-674 -15,-961 0,-322 0,-644 0,-965 775,-43 1500,158 1500,923 0,790 -854,1024 -1485,1003 z m 2503,2534 14,-14 14,-13 v -14 l 13,-14 14,-14 v -13 l 14,-14 v -14 l 14,-14 c 66,-123 151,-322 151,-523 l 1,-316 c -6,-276 -124,-492 -235,-661 l -14,-13 -27,-42 -14,-14 -14,-13 -13,-14 -14,-14 -14,-14 -14,-13 -14,-14 -13,-14 -14,-14 -14,-13 -14,-14 -13,-14 -14,-14 c -20,0 -14,5 -14,-18 -45,-29 -94,-76 -144,-113 -57,-43 -101,-69 -159,-103 l -13,-13 h -14 l -14,-14 -27,-14 -14,-14 h -14 l -14,-13 h -13 l -14,-14 h -14 l -14,-14 h -14 l -13,-14 h -14 l -14,-14 h -14 l -13,-13 c -74,-24 -236,-96 -285,-152 20,-59 165,-159 216,-192 l 14,-14 13,-14 14,-13 55,-42 14,-14 14,-13 13,-14 14,-14 14,-14 14,-13 14,-14 13,-14 14,-14 14,-13 15,-14 c 112,-171 298,-273 357,-688 23,-167 9,-316 -33,-463 -45,-156 -105,-235 -174,-349 l -14,-14 c -353,-543 -1250,-759 -1926,-757 -195,1 -736,-43 -887,-6 l -1,6011 c 99,28 840,-18 1012,-18 310,0 691,-39 953,-107 253,-66 566,-170 765,-295 181,-112 455,-349 552,-507 z"
         id="path7"
         inkscape:connector-curvature="0"
         style="fill:#a9cbfe" /><path
         class="fil1"
         d="m 6067,10264 -27,14 h -151 l -31,11 -217,3 c -204,0 -1360,13 -1459,-42 -1,-54 19,-75 42,-110 l 13,-14 14,-13 14,-14 13,-28 14,-13 14,-14 14,-14 c 12,-45 20,-45 55,-69 l 14,-13 13,-14 14,-14 14,-14 c 13,-48 5,-31 41,-55 l 14,-13 14,-14 13,-14 14,-14 14,-14 c 12,-45 20,-45 55,-68 l 14,-14 14,-14 13,-14 14,-13 14,-14 14,-14 13,-14 c 10,-39 -2,-20 28,-41 l 14,-14 13,-13 14,-14 14,-14 14,-14 13,-14 14,-13 14,-14 14,-14 13,-27 14,-14 14,-14 14,-14 14,-13 13,-14 14,-14 14,-14 14,-13 13,-14 14,-14 14,-14 v -13 l 14,-14 13,-14 14,-14 14,-14 14,-13 13,-14 14,-14 14,-14 14,-13 13,-14 14,-14 14,-14 v -13 l 14,-14 14,-14 13,-14 14,-13 14,-14 14,-14 13,-14 14,-13 14,-14 14,-14 13,-14 14,-14 14,-13 28,-42 13,-13 14,-14 14,-14 13,-14 14,-13 14,-14 14,-14 14,-14 13,-13 14,-14 14,-14 14,-14 13,-13 14,-14 55,-69 14,-14 14,-14 13,-13 14,-14 14,-14 14,-14 13,-13 14,-14 14,-14 14,-14 13,-13 14,-14 14,-14 14,-14 14,-13 13,-14 15,-14 c 32,-42 68,-73 109,-111 44,-40 66,-83 124,-93 68,98 46,1555 32,1871 -5,118 11,213 -60,232 z m 744,-3702 -14,14 -14,14 -14,14 -13,13 -14,14 -14,14 -14,14 -14,13 -13,28 -14,14 -14,13 -14,14 -13,14 -14,14 -14,13 -14,14 -13,14 -14,14 -14,14 -14,13 c -9,40 2,21 -27,42 l -14,13 -14,14 -13,14 -14,14 -14,13 -14,14 -13,14 -14,14 -14,13 c -12,46 -20,46 -55,69 l -14,14 -14,14 -13,14 -14,13 -14,14 -14,14 -13,14 c -12,45 -20,45 -55,68 l -14,14 -14,14 -14,14 -13,13 -14,14 -14,14 -14,14 c -12,45 -34,59 -69,82 l -13,14 -14,14 -14,14 -14,13 -13,14 -14,14 c -12,45 -35,59 -69,82 l -14,14 -13,14 -14,14 -14,13 -14,14 -14,14 c -12,45 -34,60 -68,83 l -14,13 -14,14 -14,14 -13,14 -14,13 -14,14 c -12,45 -20,45 -55,69 l -14,14 -13,13 -14,14 -14,14 -14,14 -13,13 c -13,45 -35,60 -69,83 l -14,14 -14,14 -14,13 -13,14 -14,14 -14,14 c -12,45 -20,45 -55,68 l -14,14 -13,14 -14,14 -14,13 -14,14 -13,14 -14,14 c -13,48 -5,31 -42,55 l -13,14 -14,13 -14,14 -14,14 -13,14 -14,13 -14,14 -14,14 c -12,48 -5,31 -41,55 l -14,14 -13,13 -14,14 -14,14 -14,14 -13,14 -14,13 c -13,48 -5,31 -42,55 l -13,14 -14,14 -14,14 -14,13 -13,14 -14,14 -14,14 -14,13 c -9,40 2,21 -27,42 l -14,13 -14,14 -13,14 -14,14 -14,13 -14,14 -13,14 -14,14 c -13,48 -5,31 -42,55 l -13,14 -14,13 -14,14 -14,14 -13,14 -14,13 -14,14 -14,14 c -9,39 2,21 -27,41 l -14,14 -14,14 -13,13 -14,14 -14,14 -14,14 -13,14 -14,13 c -10,40 2,21 -28,42 l -14,13 -13,14 -14,14 -14,14 -14,13 -13,14 -14,14 -14,14 -14,13 c -9,40 2,21 -27,42 l -14,13 -14,14 -13,14 -14,14 -14,14 -14,13 -13,14 -14,14 c -10,39 2,21 -28,41 l -13,14 -14,14 -14,13 -14,14 -14,14 -13,14 -14,13 -14,14 c -9,39 2,21 -27,41 l -14,14 -14,14 -14,14 -13,14 -14,13 -14,14 -14,14 -13,14 -14,13 -14,28 -14,14 -13,13 -14,14 -14,14 -14,14 -14,13 -13,14 -14,14 -14,14 -14,27 -13,14 -14,14 -14,13 -14,14 -13,14 -14,14 -14,14 -14,13 -13,14 c -10,39 2,21 -28,41 l -14,14 -13,14 -14,14 -14,13 -14,14 -14,14 -13,14 -14,13 -14,14 -14,28 -13,13 -14,14 -14,14 -14,14 -13,14 -14,13 -14,14 -14,14 -13,14 -14,27 -14,14 -14,14 -13,13 -14,14 -14,14 -14,14 -14,13 -13,14 -14,14 c -9,39 2,21 -28,41 l -13,14 -14,14 -14,14 -14,13 -13,14 -14,14 -14,14 -14,13 -13,14 -14,28 -14,13 -14,14 -13,14 -14,14 -14,13 -14,14 -13,14 -14,14 -14,13 -14,28 -14,14 -13,14 -14,13 -14,14 -14,14 -13,14 -14,13 -14,14 -14,14 -13,27 -14,14 -14,14 -14,14 -13,13 -14,14 -14,14 -14,14 -13,13 -14,14 c -10,39 2,21 -28,41 l -14,14 -13,14 -14,14 -14,14 -14,13 -13,14 -14,14 -14,14 -14,13 -13,28 -14,14 -14,13 -14,14 -13,14 -14,14 -14,13 -14,14 -13,14 c -10,39 2,21 -28,41 l -14,14 -14,14 -13,14 -14,13 -14,14 -14,14 -13,14 -14,13 -14,14 c -9,39 2,21 -27,41 l -14,14 -14,14 -14,14 -13,13 -14,14 -14,14 -14,14 -13,13 c -10,40 2,21 -28,42 l -14,14 -14,13 -13,14 -14,14 -14,14 -14,13 -13,14 -14,14 c -9,39 2,21 -28,41 l -13,14 -14,14 -14,13 -14,14 -13,14 -14,14 -14,13 -14,14 -13,14 c -10,39 2,21 -28,41 l -14,14 -13,14 -14,14 -14,13 -14,14 -14,14 v 27 c 223,0 425,-14 661,-13 l 82,-83 14,-14 14,-13 14,-14 14,-14 13,-14 56,-69 13,-13 14,-14 14,-14 13,-14 14,-13 14,-14 41,-55 14,-14 14,-14 14,-13 13,-14 14,-14 14,-14 14,-14 41,-55 14,-13 13,-14 14,-14 14,-14 14,-13 13,-14 14,-14 28,-41 14,-14 13,-14 14,-13 14,-14 14,-14 13,-14 14,-14 14,-13 14,-28 13,-14 14,-13 14,-14 14,-14 13,-14 14,-13 14,-14 14,-14 13,-14 14,-13 v -14 l 14,-14 14,-14 13,-13 14,-14 14,-14 14,-14 14,-14 13,-13 14,-14 v -14 l 14,-14 14,-13 13,-14 14,-14 14,-14 14,-13 13,-14 14,-14 14,-14 14,-27 13,-14 14,-14 14,-13 14,-14 13,-14 14,-14 14,-13 14,-14 c 9,-40 -2,-21 27,-42 l 14,-13 14,-14 14,-14 13,-14 14,-13 14,-14 14,-14 13,-14 20,-8 c 48,-11 65,-6 118,-6 810,8 1652,1 2463,1 v 1514 l 303,-1 h 372 c 0,-114 13,-212 13,-344 l 14,-715 c 0,-54 -6,-293 6,-339 l 8,-19 v -908 -2642 c 0,-252 -16,-483 -13,-758 0,-13 1,-43 0,-55 -3,-25 -1,-33 -15,-54 z"
         id="path9"
         inkscape:connector-curvature="0"
         style="fill:#f8f8f8" /><path
         class="fil2"
         d="m 6852,10058 v 908 c -1,238 0,477 0,716 0,246 -14,459 -14,715 l -399,-14 -303,1 c -29,-47 -13,-690 -13,-744 0,-257 -14,-488 -14,-757 H 3535 l -13,14 -14,14 -14,14 -14,13 -13,14 -14,14 -14,14 -14,13 c -9,40 2,21 -27,42 l -14,14 -14,13 -14,14 -13,14 -14,14 -14,13 -14,14 -13,14 -14,27 -14,14 -14,14 -13,14 -14,13 -14,14 -14,14 -13,14 -14,13 -14,14 v 14 l -14,14 -13,13 -14,14 -14,14 -14,14 -14,14 -13,13 -14,14 -14,14 v 14 l -14,13 -13,14 -14,14 -14,14 -14,13 -13,14 -14,14 -14,14 -14,13 -13,14 -14,28 -14,13 -14,14 -13,14 -14,14 -14,14 -14,13 -13,14 -14,14 -28,41 -14,14 -13,14 -14,13 -14,14 -14,14 -13,14 -14,13 -41,55 -14,14 -14,14 -14,14 -13,14 -14,13 -14,14 -14,14 -41,55 -14,14 -14,13 -13,14 -14,14 -14,14 -13,13 -56,69 -13,14 -14,14 -14,14 -14,13 -14,14 -82,83 c -27,47 -229,27 -330,27 -124,0 -248,0 -372,0 l 41,-41 14,-14 14,-14 14,-13 14,-14 13,-14 14,-14 c 9,-39 -2,-20 28,-41 l 13,-14 14,-14 14,-13 14,-14 13,-14 14,-14 14,-13 14,-14 13,-14 c 10,-39 -2,-21 28,-41 l 14,-14 13,-14 14,-13 14,-14 14,-14 13,-14 14,-13 14,-14 c 9,-40 -2,-21 28,-42 l 13,-13 14,-14 14,-14 14,-14 13,-13 14,-14 14,-14 14,-14 c 9,-39 -2,-20 27,-41 l 14,-14 14,-13 13,-14 14,-14 14,-14 14,-13 13,-14 14,-14 14,-14 c 9,-39 -2,-20 28,-41 l 13,-14 14,-14 14,-13 14,-14 13,-14 14,-14 14,-13 14,-14 13,-28 14,-13 14,-14 14,-14 13,-14 14,-13 14,-14 14,-14 13,-14 14,-14 c 10,-39 -2,-20 28,-41 l 14,-14 13,-13 14,-14 14,-14 14,-14 13,-13 14,-14 14,-14 14,-14 13,-27 14,-14 14,-14 14,-13 13,-14 14,-14 14,-14 14,-13 13,-14 14,-14 14,-28 14,-13 14,-14 13,-14 14,-14 14,-13 14,-14 13,-14 14,-14 14,-13 14,-28 13,-14 14,-13 14,-14 14,-14 13,-14 14,-13 14,-14 14,-14 13,-14 c 10,-39 -2,-20 28,-41 l 14,-14 13,-14 14,-13 14,-14 14,-14 14,-14 13,-13 14,-14 14,-14 14,-27 13,-14 14,-14 14,-14 14,-13 13,-14 14,-14 14,-14 14,-14 13,-13 14,-28 14,-14 14,-13 13,-14 14,-14 14,-14 14,-13 14,-14 13,-14 14,-14 c 9,-39 -2,-20 28,-41 l 13,-14 14,-13 14,-14 14,-14 13,-14 14,-14 14,-13 14,-14 13,-14 14,-27 14,-14 14,-14 13,-14 14,-13 14,-14 14,-14 14,-14 13,-13 14,-14 14,-28 14,-13 13,-14 14,-14 14,-14 14,-13 13,-14 14,-14 14,-14 14,-14 c 9,-39 -2,-20 27,-41 l 14,-14 14,-13 13,-14 14,-14 14,-14 14,-13 14,-14 13,-14 c 10,-39 -2,-21 28,-41 l 14,-14 13,-14 14,-13 14,-14 14,-14 13,-14 14,-14 14,-13 c 9,-40 -2,-21 27,-42 l 14,-13 14,-14 14,-14 13,-14 14,-13 14,-14 14,-14 13,-14 14,-13 c 10,-40 -2,-21 28,-42 l 14,-13 13,-14 14,-14 14,-14 14,-14 13,-13 14,-14 14,-14 c 9,-39 -2,-21 27,-41 l 14,-14 14,-14 14,-13 13,-14 14,-14 14,-14 14,-13 13,-14 c 13,-48 6,-31 42,-55 l 14,-14 13,-14 14,-14 14,-13 14,-14 13,-14 14,-14 14,-13 c 9,-40 -2,-21 27,-42 l 14,-13 14,-14 14,-14 13,-14 14,-13 14,-14 14,-14 13,-14 c 13,-48 6,-31 42,-55 l 14,-13 13,-14 14,-14 14,-14 14,-14 13,-13 14,-14 c 13,-48 5,-31 41,-55 l 14,-14 14,-14 14,-13 13,-14 14,-14 14,-14 14,-13 13,-14 c 13,-48 6,-31 42,-55 l 14,-14 13,-14 14,-14 14,-13 14,-14 13,-14 14,-14 c 12,-45 20,-45 55,-68 l 14,-14 14,-14 13,-14 14,-13 14,-14 14,-14 c 12,-45 34,-60 69,-83 l 13,-13 14,-14 14,-14 14,-14 13,-13 14,-14 c 12,-45 20,-45 55,-69 l 14,-14 14,-13 13,-14 14,-14 14,-14 14,-13 c 12,-45 34,-60 68,-83 l 14,-14 14,-14 14,-13 14,-14 13,-14 14,-14 c 12,-45 35,-59 69,-82 l 14,-14 13,-14 14,-13 14,-14 14,-14 13,-14 c 12,-45 35,-59 69,-82 l 14,-14 14,-14 14,-14 13,-13 14,-14 14,-14 14,-14 c 12,-45 20,-45 55,-68 l 13,-14 14,-14 14,-14 14,-13 13,-14 14,-14 14,-14 c 12,-45 20,-45 55,-69 l 14,-13 14,-14 13,-14 14,-14 14,-13 14,-14 13,-14 14,-14 14,-13 c 9,-40 -2,-21 27,-42 l 14,-13 14,-14 14,-14 13,-14 14,-14 14,-13 14,-14 13,-14 14,-14 14,-13 14,-14 13,-28 14,-13 14,-14 14,-14 14,-14 13,-13 14,-14 14,-14 14,-14 13,-13 52,-59 c 9,895 -10,1775 -10,2673 v 675 c 0,47 4,153 -3,189 -6,30 -1,14 -11,31 z m -5505,2380 c 184,43 672,28 881,28 34,0 32,-12 50,-33 16,-18 21,-30 43,-53 l 872,-958 c 102,-127 297,-319 399,-441 21,-26 12,-43 53,-43 h 2367 v 1487 c 0,31 10,41 42,41 h 880 c 0,-915 28,-1821 28,-2739 0,-924 14,-1819 14,-2752 0,-129 -5,-571 -42,-647 -91,22 -263,243 -375,355 l -350,378 c -216,213 -493,551 -702,757 L 4461,8960 c -35,37 -44,58 -83,97 l -357,385 c -107,129 -370,398 -433,476 l -345,384 c -68,67 -111,125 -179,192 l -254,283 c -119,118 -333,376 -441,481 l -347,382 c -31,40 -51,56 -87,93 -36,37 -44,59 -82,97 -85,86 -389,431 -476,542 -37,46 -24,1 -30,66 z"
         id="path11"
         inkscape:connector-curvature="0"
         style="fill:#000000" /><path
         class="fil2"
         d="m 16156,8668 -15,14 -14,13 -14,14 -13,14 -14,14 -14,13 -14,14 -14,14 -13,14 -14,13 -14,14 -55,42 -14,13 -13,14 -14,14 c -51,33 -196,133 -216,192 49,56 211,128 285,152 l 13,13 h 14 l 14,14 h 14 l 13,14 h 14 l 14,14 h 14 l 14,14 h 13 l 14,13 h 14 l 14,14 27,14 14,14 h 14 l 13,13 c 58,34 102,60 159,103 50,37 99,84 144,113 l 14,18 14,14 13,14 14,14 14,13 14,14 13,14 14,14 14,13 14,14 14,14 13,14 14,13 14,14 27,42 14,13 c 111,169 229,385 235,661 12,20 12,36 14,68 1,38 2,195 -7,229 l -8,19 c 0,201 -85,400 -151,523 l -14,14 v 14 l -14,14 v 13 l -14,14 -13,14 v 14 l -14,13 -14,14 c -97,158 -371,395 -552,507 -199,125 -512,229 -765,295 -262,68 -643,107 -953,107 -172,0 -913,46 -1012,18 l 1,-6011 c 151,-37 692,7 887,6 676,-2 1573,214 1926,757 l 14,14 c 69,114 129,193 174,349 42,147 56,296 33,463 -59,415 -245,517 -357,688 z m 934,1899 v 228 c -11,157 -44,312 -102,454 -158,394 -472,679 -852,868 -268,134 -521,231 -870,286 -508,81 -1296,63 -1850,63 V 6315 l 1398,33 c 87,13 179,13 265,24 603,73 1516,606 1516,1319 0,194 4,420 -65,582 -23,55 -53,113 -82,165 -44,79 -151,228 -214,295 -127,137 -359,292 -396,348 41,21 67,43 116,63 270,111 522,267 727,470 246,243 385,595 409,953 z"
         id="path13"
         inkscape:connector-curvature="0"
         style="fill:#000000" /><path
         class="fil3"
         d="m 9343,11709 -14,14 58,564 c 258,-1 1503,-219 1633,-316 l 15,-14 c -22,-93 -125,-480 -162,-528 -45,-11 -633,121 -747,141 l -735,118 c -46,12 -39,15 -48,21 z"
         id="path15"
         inkscape:connector-curvature="0"
         style="fill:#fea9a9" /><path
         class="fil3"
         d="m 11480,6480 -101,-9 c -397,31 -800,80 -1185,145 -120,20 -251,56 -355,71 -3,124 82,492 124,576 103,2 271,-41 380,-59 344,-57 841,-131 1180,-147 z"
         id="path17"
         inkscape:connector-curvature="0"
         style="fill:#fea9a9" /><path
         class="fil3"
         d="m 10141,9631 -14,28 v 13 l 14,14 c 11,9 5,7 25,16 l 164,43 c 63,21 126,40 185,63 215,85 474,186 676,288 95,47 238,143 312,168 59,-43 125,-155 177,-223 42,-55 147,-177 154,-245 -21,0 -14,5 -14,-19 -282,-177 -391,-242 -713,-383 -117,-51 -703,-277 -829,-269 -34,57 -135,434 -137,506 z"
         id="path19"
         inkscape:connector-curvature="0"
         style="fill:#fea9a9" /><path
         class="fil3"
         d="m 8930,6975 -14,14 h -14 l -13,14 c -163,39 -480,267 -611,394 -243,238 -263,385 -337,677 l 615,-41 c 73,-112 8,-79 168,-231 114,-108 355,-243 508,-304 80,-32 244,-72 290,-124 l 1,-41 c -6,-114 -100,-383 -139,-454 -21,0 -14,4 -14,-21 -112,-46 -336,84 -440,117 z"
         id="path21"
         inkscape:connector-curvature="0"
         style="fill:#fea9a9" /><path
         class="fil3"
         d="m 8187,8627 -3,13 c 27,74 231,251 300,308 214,180 904,543 1175,610 l 14,-9 c 50,-93 170,-411 164,-551 -50,-42 -463,-195 -638,-297 -496,-289 -405,-301 -531,-387 l -13,-24 c -84,28 -434,284 -468,337 z"
         id="path23"
         inkscape:connector-curvature="0"
         style="fill:#fea9a9" /><path
         class="fil3"
         d="m 11407,11640 14,14 13,55 14,14 c 48,86 67,94 167,42 59,-30 119,-66 177,-97 l 14,-14 c 161,-90 499,-395 570,-571 55,-135 90,-335 54,-508 -36,-175 -108,-267 -180,-393 -22,0 -17,6 -17,-14 h -14 c -144,69 -308,271 -445,342 12,97 151,294 -78,497 -98,87 -304,208 -441,262 z"
         id="path25"
         inkscape:connector-curvature="0"
         style="fill:#fea9a9" /><path
         class="fil3"
         d="m 11985,7003 c 66,0 26,-1 41,13 l 387,-4 1,290 c 46,-25 573,-550 607,-602 -30,-59 -332,-315 -404,-385 -51,-50 -89,-92 -137,-124 l -13,-14 -14,-14 -14,4 c -23,37 -22,186 -27,244 h -499 l 29,592 z"
         id="path27"
         inkscape:connector-curvature="0"
         style="fill:#fea9a9" /><path
         class="fil2"
         d="M 6012,10223 H 4278 c 31,-46 68,-68 105,-116 L 5430,8966 c 26,-30 26,-37 56,-68 l 554,-602 c 0,326 0,652 0,977 0,329 -28,625 -28,950 z m -150,-1858 -15,14 -13,14 -14,13 -14,14 -14,14 -14,14 -13,13 -14,14 -14,14 -14,14 -13,13 -14,14 -14,14 -14,14 -13,13 -14,14 -14,14 -55,69 -14,14 -13,13 -14,14 -14,14 -14,14 -13,13 -14,14 -14,14 -14,14 -14,13 -13,14 -14,14 -14,14 -13,13 -28,42 -14,13 -14,14 -13,14 -14,14 -14,14 -14,13 -13,14 -14,14 -14,14 -14,13 -13,14 -14,14 -14,14 v 13 l -14,14 -14,14 -13,14 -14,13 -14,14 -14,14 -13,14 -14,13 -14,14 -14,14 -13,14 -14,14 v 13 l -14,14 -14,14 -13,14 -14,13 -14,14 -14,14 -13,14 -14,13 -14,14 -14,14 -14,14 -13,27 -14,14 -14,14 -14,13 -13,14 -14,14 -14,14 -14,14 -13,13 -14,14 c -10,39 2,21 -28,41 l -13,14 -14,14 -14,14 -14,13 -13,14 -14,14 -14,14 c -12,45 -20,45 -55,68 l -14,14 -14,14 -13,14 -14,14 -14,13 c -13,48 -5,31 -41,55 l -14,14 -14,14 -13,14 -14,13 c -12,46 -20,46 -55,69 l -14,14 -14,14 -14,13 -13,28 -14,14 -14,13 -13,14 c -23,35 -43,56 -42,110 99,55 1255,42 1459,42 l 19,-8 90,-7 c 47,1 92,1 139,1 h 151 l 27,-14 c 71,-19 55,-114 60,-232 14,-316 36,-1773 -32,-1871 -58,10 -80,53 -124,93 -41,38 -77,69 -109,111 z"
         id="path29"
         inkscape:connector-curvature="0"
         style="fill:#000000" /><path
         class="fil2"
         d="M 14311,11654 V 9617 c 75,0 95,9 152,13 177,15 217,-5 500,36 521,75 1192,319 1192,942 0,278 -175,537 -378,696 -339,267 -962,350 -1466,350 z m -66,60 c 90,26 600,-18 714,-30 223,-25 439,-70 616,-156 1016,-494 884,-1805 -591,-1937 -221,-19 -521,-43 -742,-31 z"
         id="path31"
         inkscape:connector-curvature="0"
         style="fill:#000000" /><path
         class="fil2"
         d="m 14311,8874 c 0,-599 13,-1178 13,-1789 166,14 353,9 504,33 1183,188 1156,1575 -256,1729 -81,8 -178,27 -261,27 z m -54,67 c 631,21 1485,-213 1485,-1003 0,-765 -725,-966 -1500,-923 0,321 0,643 0,965 0,287 -17,685 15,961 z"
         id="path33"
         inkscape:connector-curvature="0"
         style="fill:#000000" /><path
         class="fil2"
         d="m 12219,10168 c 12,-21 1,-21 14,0 l 17,14 c 72,126 144,218 180,393 36,173 1,373 -54,508 -71,176 -409,481 -570,571 l -14,14 c -58,31 -118,67 -177,97 -100,52 -119,44 -167,-42 l -14,-14 -13,-55 -14,-14 -152,-371 c 137,-54 343,-175 441,-262 229,-203 90,-400 78,-497 137,-71 301,-273 445,-342 z m -468,536 c 0,268 -425,407 -540,507 -66,57 24,234 78,368 163,406 116,420 556,155 222,-134 447,-293 567,-534 177,-358 166,-657 -47,-1013 -135,-225 -186,-98 -504,146 -347,266 -110,219 -110,371 z"
         id="path35"
         inkscape:connector-curvature="0"
         style="fill:#000000" /><path
         class="fil2"
         d="m 8187,8627 c 34,-53 384,-309 468,-337 l 13,24 c 126,86 35,98 531,387 175,102 588,255 638,297 6,140 -114,458 -164,551 0,18 4,15 -14,9 -271,-67 -961,-430 -1175,-610 -69,-57 -273,-234 -300,-308 -16,-12 -15,-3 3,-13 z m -138,-14 c 120,226 491,506 711,637 146,87 287,155 451,224 87,37 159,62 248,96 46,18 77,26 122,43 43,18 100,30 133,46 55,-83 96,-213 133,-322 140,-422 171,-370 -148,-502 -93,-38 -179,-76 -272,-114 -89,-37 -167,-83 -254,-132 -267,-148 -299,-229 -441,-342 -104,-83 -92,-70 -237,27 l -336,242 c -43,33 -67,68 -110,97 z"
         id="path37"
         inkscape:connector-curvature="0"
         style="fill:#000000" /><path
         class="fil2"
         d="m 10127,9659 14,-28 c 2,-72 103,-449 137,-506 126,-8 712,218 829,269 322,141 431,206 713,383 l 14,19 c -7,68 -112,190 -154,245 -52,68 -118,180 -177,223 -74,-25 -217,-121 -312,-168 -202,-102 -461,-203 -676,-288 -59,-23 -122,-42 -185,-63 l -164,-43 c -20,-9 -14,-7 -25,-16 l -14,-14 z m -82,82 390,133 c 176,58 578,221 747,312 36,20 42,27 78,46 114,61 180,121 271,142 44,-66 413,-476 413,-592 0,-76 -418,-291 -505,-334 -239,-120 -496,-215 -756,-304 -67,-22 -91,-35 -165,-55 -130,-37 -258,-112 -309,-37 -62,92 -164,556 -164,689 z"
         id="path39"
         inkscape:connector-curvature="0"
         style="fill:#000000" /><path
         class="fil2"
         d="m 8889,7003 13,-14 h 14 l 14,-14 c 104,-33 328,-163 440,-117 l 14,21 c 39,71 133,340 139,454 2,3 5,4 5,8 0,4 3,7 3,8 -3,27 1,10 -9,25 -46,52 -210,92 -290,124 -153,61 -394,196 -508,304 -160,152 -95,119 -168,231 l -615,41 c 74,-292 94,-439 337,-677 131,-127 448,-355 611,-394 z m -1005,990 c 0,146 -24,152 206,152 111,0 449,-19 514,-50 46,-22 37,-35 57,-82 39,-93 127,-161 208,-218 108,-75 242,-146 364,-200 63,-29 128,-52 196,-79 38,-15 61,-24 97,-41 l 106,-46 c 0,-166 -154,-602 -221,-702 -212,5 -769,285 -971,419 -43,28 -55,40 -94,71 -43,33 -56,52 -96,83 -57,43 -47,38 -89,90 -30,38 -51,54 -83,96 -91,123 -194,297 -194,507 z"
         id="path41"
         inkscape:connector-curvature="0"
         style="fill:#000000" /><path
         class="fil2"
         d="m 11379,6471 c 45,-10 64,-11 101,9 l 43,577 c -339,16 -836,90 -1180,147 -109,18 -277,61 -380,59 -42,-84 -127,-452 -124,-576 104,-15 235,-51 355,-71 385,-65 788,-114 1185,-145 z m -1637,160 c 0,143 118,729 179,729 l 828,-135 c 141,-20 295,-37 428,-53 158,-20 284,-27 423,-59 1,-50 7,-45 6,-79 -1,-18 -5,-60 -6,-86 -4,-65 -9,-117 -15,-192 -10,-125 -27,-245 -27,-386 -134,0 -833,81 -936,95 -213,30 -563,82 -776,133 -56,13 -59,23 -104,33 z"
         id="path43"
         inkscape:connector-curvature="0"
         style="fill:#000000" /><path
         class="fil2"
         d="m 9329,11723 14,-14 c 9,-6 2,-9 48,-21 l 735,-118 c 114,-20 702,-152 747,-141 37,48 140,435 162,528 l -15,14 c -130,97 -1375,315 -1633,316 z m -55,-97 c -37,156 22,678 52,719 41,57 191,20 300,5 321,-45 622,-100 938,-163 181,-36 414,-72 568,-175 -3,-108 -164,-608 -207,-688 -126,10 -591,129 -812,165 -119,20 -791,114 -839,137 z"
         id="path45"
         inkscape:connector-curvature="0"
         style="fill:#000000" /><path
         class="fil2"
         d="m 12439,6167 c 11,-22 1,-24 14,-4 l 14,14 13,14 c 48,32 86,74 137,124 72,70 374,326 404,385 -34,52 -561,577 -607,602 l -1,-290 -387,4 c -65,0 -26,1 -41,-13 h -43 l -29,-592 h 499 c 5,-58 4,-207 27,-244 z m -83,-59 v 207 c -84,0 -385,41 -522,41 0,64 -2,129 -1,193 1,106 42,451 42,550 h 481 c 0,203 -1,166 14,344 104,-9 331,-268 403,-341 65,-65 120,-120 185,-185 68,-68 123,-134 183,-203 -100,-149 -262,-268 -362,-368 -33,-34 -55,-57 -89,-90 -54,-54 -254,-239 -320,-244 -3,43 -14,49 -14,96 z"
         id="path47"
         inkscape:connector-curvature="0"
         style="fill:#000000" /><path
         class="fil2"
         d="m 11214,13883 h -96 v -289 h 96 c 249,0 241,289 0,289 z m -96,-412 v -262 c 100,0 206,26 206,124 0,104 -98,138 -206,138 z m -124,536 c 251,0 537,18 537,-303 0,-94 -113,-174 -193,-192 3,-2 7,-9 8,-6 l 30,-26 c 200,-176 26,-381 -203,-381 h -179 z"
         id="path49"
         inkscape:connector-curvature="0"
         style="fill:#000000" /><path
         class="fil2"
         d="m 3384,13484 v -69 h -138 v 592 h 138 v -358 c 0,-130 220,-221 220,0 v 358 h 124 c 0,-156 -51,-591 206,-468 30,125 14,332 14,468 h 138 c 0,-276 60,-605 -179,-605 -120,0 -121,61 -193,110 -53,-100 -78,-110 -179,-110 -74,0 -106,52 -151,82 z"
         id="path51"
         inkscape:connector-curvature="0"
         style="fill:#000000" /><path
         class="fil2"
         d="m 13898,13498 v -83 h -124 v 592 h 124 c 0,-186 -54,-592 206,-468 29,125 14,332 14,468 h 137 v -330 c 0,-195 221,-209 221,-55 v 385 h 124 v -440 c 0,-196 -300,-223 -345,-55 h -27 c -30,-129 -198,-166 -330,-14 z"
         id="path53"
         inkscape:connector-curvature="0"
         style="fill:#000000" /><path
         class="fil2"
         d="m 1774,13360 c 16,18 6,5 23,33 27,45 105,228 115,270 h -262 c 25,-107 99,-195 124,-303 z m -413,647 h 138 c 3,-44 75,-195 96,-234 h 385 c 5,56 24,74 46,119 21,43 30,77 51,115 h 137 c -20,-38 -29,-72 -50,-115 l -271,-596 c -24,-52 -85,-199 -119,-225 l -312,693 c -21,45 -28,71 -50,115 -26,50 -38,71 -51,128 z"
         id="path55"
         inkscape:connector-curvature="0"
         style="fill:#000000" /><path
         class="fil3"
         d="m 8503,11758 18,598 421,-17 c 5,-116 -9,-202 -12,-314 -2,-66 -8,-239 -41,-293 z"
         id="path57"
         inkscape:connector-curvature="0"
         style="fill:#fea9a9" /><path
         class="fil2"
         d="m 9164,13718 c 0,-252 371,-272 371,14 0,214 -371,237 -371,-14 z m -138,-41 v 69 c 0,136 115,275 289,275 124,0 136,-63 207,-110 v 96 h 137 v -592 h -137 v 97 c -94,-63 -69,-110 -234,-110 -136,0 -262,140 -262,275 z"
         id="path59"
         inkscape:connector-curvature="0"
         style="fill:#000000" /><path
         class="fil2"
         d="m 12384,13113 v 853 c 0,55 39,41 138,41 0,-219 -49,-495 165,-495 137,0 96,329 96,495 h 124 c 0,-207 34,-452 -51,-541 -150,-157 -292,4 -334,32 0,-78 -1,-156 0,-234 0,-179 29,-193 -97,-193 -31,0 -41,10 -41,42 z"
         id="path61"
         inkscape:connector-curvature="0"
         style="fill:#000000" /><path
         class="fil2"
         d="m 16691,13526 h 55 c 69,0 123,55 138,110 h -344 c 34,-52 66,-110 151,-110 z m 0,495 c 136,0 218,-11 303,-138 -34,-22 -64,-47 -96,-68 -87,129 -343,117 -358,-69 l 414,1 c 79,-1 80,-4 74,-59 -50,-411 -611,-361 -621,18 -3,158 120,315 284,315 z"
         id="path63"
         inkscape:connector-curvature="0"
         style="fill:#000000" /><path
         class="fil2"
         d="m 10086,13526 h 55 c 85,0 117,58 151,110 h -344 c 15,-55 69,-110 138,-110 z m -275,137 v 83 c 0,138 137,275 275,275 119,0 232,-19 303,-124 -29,-42 -56,-55 -97,-82 -99,148 -344,93 -358,-69 54,0 496,24 496,-28 0,-158 -132,-316 -289,-316 -102,0 -166,9 -244,87 -28,28 -86,125 -86,174 z"
         id="path65"
         inkscape:connector-curvature="0"
         style="fill:#000000" /><path
         class="fil2"
         d="m 13306,13526 h 55 c 74,0 123,46 138,110 h -331 c 15,-55 69,-110 138,-110 z m -275,137 v 83 c 0,138 137,275 275,275 119,0 232,-19 303,-124 -28,-42 -55,-55 -97,-82 -92,138 -343,103 -357,-69 l 414,1 c 65,0 85,5 78,-63 -30,-261 -331,-376 -522,-202 -31,28 -94,128 -94,181 z"
         id="path67"
         inkscape:connector-curvature="0"
         style="fill:#000000" /><path
         class="fil2"
         d="m 7210,13526 h 55 c 69,0 123,55 137,110 h -344 c 35,-52 66,-110 152,-110 z m 0,495 c 135,0 217,-11 302,-138 -34,-22 -64,-47 -96,-68 -75,112 -243,100 -313,38 -41,-36 -36,-61 -58,-107 h 495 c 0,-102 -7,-181 -85,-259 -180,-180 -524,-67 -532,219 -5,155 130,315 287,315 z"
         id="path69"
         inkscape:connector-curvature="0"
         style="fill:#000000" /><path
         class="fil2"
         d="m 15755,13718 c 0,-252 386,-251 386,-14 0,116 -89,193 -138,193 -92,0 -133,11 -192,-55 -19,-22 -56,-87 -56,-124 z m -137,-14 c 0,158 99,317 303,317 112,0 140,-66 206,-110 v 96 h 124 v -592 h -124 v 97 c -96,-65 -85,-110 -234,-110 -164,0 -275,174 -275,302 z"
         id="path71"
         inkscape:connector-curvature="0"
         style="fill:#000000" /><path
         class="fil2"
         d="m 11985,13897 c -203,0 -243,-233 -139,-317 205,-165 419,100 267,253 -26,27 -83,64 -128,64 z m -330,-193 c 0,163 143,317 302,317 h 69 c 104,0 262,-158 262,-262 0,-125 10,-164 -100,-272 -204,-202 -533,-20 -533,217 z"
         id="path73"
         inkscape:connector-curvature="0"
         style="fill:#000000" /><path
         class="fil2"
         d="m 8889,11732 c 33,54 39,227 41,293 3,112 17,198 12,314 l -421,17 -18,-598 z m -468,-9 c 0,181 -5,561 27,702 73,0 80,13 138,13 92,0 143,-9 234,-14 69,-3 152,-25 220,-27 0,-138 -24,-271 -28,-399 -12,-400 -49,-344 -234,-344 -66,0 -357,4 -357,69 z"
         id="path75"
         inkscape:connector-curvature="0"
         style="fill:#000000" /><path
         class="fil2"
         d="m 7788,13498 v -83 h -124 v 592 h 124 c 0,-232 -49,-495 165,-495 33,0 82,49 82,82 v 413 h 138 c 0,-351 64,-605 -220,-605 -71,0 -120,66 -165,96 z"
         id="path77"
         inkscape:connector-curvature="0"
         style="fill:#000000" /><path
         class="fil2"
         d="m 4334,13498 v -83 h -124 v 592 c 155,0 140,13 138,-123 -1,-55 -1,-111 -1,-166 -1,-70 -7,-96 24,-141 79,-109 224,-74 224,45 v 385 h 124 v -468 c 0,-53 -74,-137 -207,-137 -95,0 -105,77 -178,96 z"
         id="path79"
         inkscape:connector-curvature="0"
         style="fill:#000000" /><path
         class="fil2"
         d="m 2600,13746 c 0,77 21,145 58,189 42,51 105,79 170,86 h 62 c 120,-12 233,-96 233,-248 v -358 h -138 c 0,267 48,482 -124,482 -172,0 -124,-226 -124,-482 h -137 z"
         id="path81"
         inkscape:connector-curvature="0"
         style="fill:#000000" /><polygon
         class="fil3"
         points="7801,11778 7801,12370 8035,12371 8086,12364 8083,11779 "
         id="polygon83"
         style="fill:#fea9a9" /><path
         class="fil2"
         d="m 7801,11778 282,1 3,585 -51,7 -234,-1 z m -68,-28 v 716 c 156,0 265,-14 426,-14 0,-249 35,-174 -2,-548 -25,-256 -77,-237 -300,-208 -51,6 -124,2 -124,54 z"
         id="path85"
         inkscape:connector-curvature="0"
         style="fill:#000000" /><path
         class="fil2"
         d="m 6026,13704 c 0,184 128,317 330,317 66,0 107,-28 166,-41 v -152 c -35,10 -234,152 -339,-19 -90,-145 46,-283 146,-283 94,0 124,39 193,55 v -138 c -225,-119 -496,24 -496,261 z"
         id="path87"
         inkscape:connector-curvature="0"
         style="fill:#000000" /><path
         class="fil2"
         d="m 15026,13691 c 0,252 218,422 496,275 v -138 c -88,21 -130,86 -235,57 -218,-60 -146,-359 42,-359 94,0 124,39 193,55 v -138 c -257,-123 -496,45 -496,248 z"
         id="path89"
         inkscape:connector-curvature="0"
         style="fill:#000000" /><path
         class="fil2"
         d="m 5847,13842 c -57,86 -131,64 -206,14 -33,17 -56,32 -96,41 20,77 103,121 190,124 h 21 c 102,-4 201,-64 201,-193 0,-176 -275,-174 -275,-261 0,-91 161,-17 193,0 30,-45 54,-43 69,-96 -81,-22 -67,-69 -193,-69 -132,0 -230,118 -170,238 29,59 75,72 133,101 77,38 96,30 133,101 z"
         id="path91"
         inkscape:connector-curvature="0"
         style="fill:#000000" /><path
         class="fil2"
         d="m 8352,13415 h -96 c 0,137 -14,124 96,124 v 468 h 137 v -468 h 124 v -124 h -124 v -165 h -137 z"
         id="path93"
         inkscape:connector-curvature="0"
         style="fill:#000000" /><path
         class="fil2"
         d="m 2324,13113 v 894 h 138 v -894 c 0,-62 -138,-62 -138,0 z"
         id="path95"
         inkscape:connector-curvature="0"
         style="fill:#000000" /><path
         class="fil2"
         d="m 7306,11794 c 21,-18 -19,-14 29,-13 40,1 19,-6 40,16 34,53 23,525 0,586 l -14,14 h -41 l -14,-14 c -27,-73 -39,-527 0,-589 z m -83,672 h 234 v -757 h -234 z"
         id="path97"
         inkscape:connector-curvature="0"
         style="fill:#000000" /><path
         class="fil2"
         d="m 8723,14007 c 186,0 138,79 138,-550 0,-55 -39,-42 -138,-42 z"
         id="path99"
         inkscape:connector-curvature="0"
         style="fill:#000000" /><path
         class="fil2"
         d="m 14765,14007 c 185,0 137,79 137,-550 0,-55 -39,-42 -137,-42 z"
         id="path101"
         inkscape:connector-curvature="0"
         style="fill:#000000" /><polygon
         class="fil2"
         points="6783,14007 6783,13415 6645,13415 6645,14007 "
         id="polygon103"
         style="fill:#000000" /><polygon
         class="fil2"
         points="5008,14007 5008,13415 4884,13415 4884,14007 "
         id="polygon105"
         style="fill:#000000" /><path
         class="fil3"
         d="m 7306,12383 14,14 h 41 l 14,-14 c 23,-61 34,-533 0,-586 l -69,-3 c -39,62 -27,516 0,589 z"
         id="path107"
         inkscape:connector-curvature="0"
         style="fill:#fea9a9" /><path
         class="fil2"
         d="m 4925,13319 h 42 c 98,0 110,-193 -14,-193 -152,0 -120,193 -28,193 z"
         id="path109"
         inkscape:connector-curvature="0"
         style="fill:#000000" /><path
         class="fil2"
         d="m 14737,13209 c 0,178 193,114 193,28 0,-158 -193,-120 -193,-28 z"
         id="path111"
         inkscape:connector-curvature="0"
         style="fill:#000000" /><path
         class="fil2"
         d="m 8696,13209 c 0,185 193,104 193,28 0,-153 -193,-127 -193,-28 z"
         id="path113"
         inkscape:connector-curvature="0"
         style="fill:#000000" /><path
         class="fil2"
         d="m 6618,13209 c 0,158 134,110 158,90 70,-57 20,-173 -62,-173 -39,0 -96,44 -96,83 z"
         id="path115"
         inkscape:connector-curvature="0"
         style="fill:#000000" /></g></g></svg>